<svg xmlns="http://www.w3.org/2000/svg" viewBox="0 0 32 32">
  <defs>
    <linearGradient id="grad" x1="0%" y1="0%" x2="100%" y2="100%">
      <stop offset="0%" style="stop-color:#6366f1"/>
      <stop offset="100%" style="stop-color:#a855f7"/>
    </linearGradient>
  </defs>
  <circle cx="16" cy="16" r="15" fill="#0f172a"/>
  <g fill="none" stroke="url(#grad)" stroke-width="1.5" stroke-linecap="round" stroke-linejoin="round">
    <!-- Brain outline -->
    <path d="M16 6c-2.5 0-4.5 1.5-5 3.5-1.5.5-2.5 2-2.5 3.5 0 1.5.5 2.5 1.5 3.5-.5 1-1 2.5-.5 4 .5 1.5 2 2.5 3.5 2.5.5 1.5 2 3 4.5 3h1c2.5 0 4-1.5 4.5-3 1.5 0 3-1 3.5-2.5.5-1.5 0-3-.5-4 1-1 1.5-2 1.5-3.5 0-1.5-1-3-2.5-3.5-.5-2-2.5-3.5-5-3.5h-1z"/>
    <!-- Neural connections -->
    <circle cx="12" cy="12" r="1.5" fill="url(#grad)"/>
    <circle cx="20" cy="12" r="1.5" fill="url(#grad)"/>
    <circle cx="16" cy="16" r="1.5" fill="url(#grad)"/>
    <circle cx="12" cy="20" r="1.5" fill="url(#grad)"/>
    <circle cx="20" cy="20" r="1.5" fill="url(#grad)"/>
    <line x1="12" y1="12" x2="16" y2="16"/>
    <line x1="20" y1="12" x2="16" y2="16"/>
    <line x1="12" y1="20" x2="16" y2="16"/>
    <line x1="20" y1="20" x2="16" y2="16"/>
    <line x1="12" y1="12" x2="12" y2="20"/>
    <line x1="20" y1="12" x2="20" y2="20"/>
  </g>
</svg>
